<mxfile host="Electron" agent="Mozilla/5.0 (Macintosh; Intel Mac OS X 10_15_7) AppleWebKit/537.36 (KHTML, like Gecko) draw.io/28.1.2 Chrome/138.0.7204.243 Electron/37.4.0 Safari/537.36" version="28.1.2">
  <diagram name="Page-1" id="BWR0iQsHFEz50JUMQGL5">
    <mxGraphModel dx="864" dy="528" grid="1" gridSize="10" guides="1" tooltips="1" connect="1" arrows="1" fold="1" page="1" pageScale="1" pageWidth="827" pageHeight="1169" math="0" shadow="0">
      <root>
        <mxCell id="0" />
        <mxCell id="1" parent="0" />
        <mxCell id="m2WXIrSw0jwoF81mmCLI-2" value="&lt;div&gt;&lt;br&gt;&lt;/div&gt;&lt;div&gt;&lt;br&gt;&lt;/div&gt;User" style="shape=actor;whiteSpace=wrap;html=1;" vertex="1" parent="1">
          <mxGeometry x="40" y="40" width="40" height="60" as="geometry" />
        </mxCell>
        <mxCell id="m2WXIrSw0jwoF81mmCLI-13" value="Form" style="text;html=1;align=center;verticalAlign=middle;whiteSpace=wrap;rounded=0;" vertex="1" parent="1">
          <mxGeometry x="355" y="38" width="60" height="30" as="geometry" />
        </mxCell>
        <mxCell id="m2WXIrSw0jwoF81mmCLI-12" value="" style="whiteSpace=wrap;html=1;aspect=fixed;" vertex="1" parent="1">
          <mxGeometry x="310" y="60" width="150" height="150" as="geometry" />
        </mxCell>
        <mxCell id="m2WXIrSw0jwoF81mmCLI-1" value="inputbox" style="html=1;dashed=0;whiteSpace=wrap;shape=mxgraph.dfd.start" vertex="1" parent="1">
          <mxGeometry x="345" y="70" width="80" height="30" as="geometry" />
        </mxCell>
        <mxCell id="m2WXIrSw0jwoF81mmCLI-3" value="" style="endArrow=classic;html=1;rounded=0;exitX=1;exitY=0.75;exitDx=0;exitDy=0;entryX=0;entryY=0.5;entryDx=0;entryDy=0;entryPerimeter=0;" edge="1" parent="1" source="m2WXIrSw0jwoF81mmCLI-2" target="m2WXIrSw0jwoF81mmCLI-1">
          <mxGeometry width="50" height="50" relative="1" as="geometry">
            <mxPoint x="390" y="460" as="sourcePoint" />
            <mxPoint x="180" y="85" as="targetPoint" />
          </mxGeometry>
        </mxCell>
        <mxCell id="m2WXIrSw0jwoF81mmCLI-11" value="Input some text" style="edgeLabel;html=1;align=center;verticalAlign=middle;resizable=0;points=[];" vertex="1" connectable="0" parent="m2WXIrSw0jwoF81mmCLI-3">
          <mxGeometry x="0.1835" y="1" relative="1" as="geometry">
            <mxPoint as="offset" />
          </mxGeometry>
        </mxCell>
        <mxCell id="m2WXIrSw0jwoF81mmCLI-14" value="Save" style="rounded=1;fillColor=#0057D8;strokeColor=none;html=1;whiteSpace=wrap;fontColor=#ffffff;align=center;verticalAlign=middle;fontStyle=0;fontSize=12;sketch=0;" vertex="1" parent="1">
          <mxGeometry x="339" y="130" width="86" height="33" as="geometry" />
        </mxCell>
        <mxCell id="m2WXIrSw0jwoF81mmCLI-15" value="" style="curved=1;endArrow=classic;html=1;rounded=0;exitX=1;exitY=0.5;exitDx=0;exitDy=0;entryX=0.006;entryY=0.189;entryDx=0;entryDy=0;entryPerimeter=0;" edge="1" parent="1" source="m2WXIrSw0jwoF81mmCLI-14" target="m2WXIrSw0jwoF81mmCLI-18">
          <mxGeometry width="50" height="50" relative="1" as="geometry">
            <mxPoint x="490" y="160" as="sourcePoint" />
            <mxPoint x="540" y="110" as="targetPoint" />
            <Array as="points">
              <mxPoint x="540" y="160" />
              <mxPoint x="490" y="110" />
            </Array>
          </mxGeometry>
        </mxCell>
        <mxCell id="m2WXIrSw0jwoF81mmCLI-17" value="Sends &#39;POST&#39; to server" style="edgeLabel;html=1;align=center;verticalAlign=middle;resizable=0;points=[];" vertex="1" connectable="0" parent="m2WXIrSw0jwoF81mmCLI-15">
          <mxGeometry x="-0.3766" y="7" relative="1" as="geometry">
            <mxPoint as="offset" />
          </mxGeometry>
        </mxCell>
        <mxCell id="m2WXIrSw0jwoF81mmCLI-18" value="Server" style="swimlane;fontStyle=0;childLayout=stackLayout;horizontal=1;startSize=30;horizontalStack=0;resizeParent=1;resizeParentMax=0;resizeLast=0;collapsible=1;marginBottom=0;whiteSpace=wrap;html=1;" vertex="1" parent="1">
          <mxGeometry x="640" y="63" width="160" height="140" as="geometry" />
        </mxCell>
        <mxCell id="m2WXIrSw0jwoF81mmCLI-16" value="data.json" style="shape=cylinder3;whiteSpace=wrap;html=1;boundedLbl=1;backgroundOutline=1;size=15;" vertex="1" parent="m2WXIrSw0jwoF81mmCLI-18">
          <mxGeometry y="30" width="160" height="80" as="geometry" />
        </mxCell>
        <mxCell id="m2WXIrSw0jwoF81mmCLI-27" value="Server saves the new notes text to data.json" style="text;html=1;align=center;verticalAlign=middle;whiteSpace=wrap;rounded=0;fontSize=8;" vertex="1" parent="m2WXIrSw0jwoF81mmCLI-18">
          <mxGeometry y="110" width="160" height="30" as="geometry" />
        </mxCell>
        <mxCell id="m2WXIrSw0jwoF81mmCLI-22" value="" style="endArrow=classic;html=1;rounded=0;exitX=0.5;exitY=1;exitDx=0;exitDy=0;edgeStyle=elbowEdgeStyle;elbow=vertical;entryX=0.5;entryY=1;entryDx=0;entryDy=0;" edge="1" parent="1" source="m2WXIrSw0jwoF81mmCLI-18" target="m2WXIrSw0jwoF81mmCLI-2">
          <mxGeometry width="50" height="50" relative="1" as="geometry">
            <mxPoint x="715" y="303.0000000000001" as="sourcePoint" />
            <mxPoint x="55" y="229.9999999999999" as="targetPoint" />
            <Array as="points">
              <mxPoint x="390" y="280" />
            </Array>
          </mxGeometry>
        </mxCell>
        <mxCell id="m2WXIrSw0jwoF81mmCLI-23" value="Sends &#39;success&#39; callback" style="edgeLabel;html=1;align=center;verticalAlign=middle;resizable=0;points=[];" vertex="1" connectable="0" parent="m2WXIrSw0jwoF81mmCLI-22">
          <mxGeometry x="0.0014" relative="1" as="geometry">
            <mxPoint as="offset" />
          </mxGeometry>
        </mxCell>
        <mxCell id="m2WXIrSw0jwoF81mmCLI-25" value="click &#39;save&#39; to send inputbox text to server" style="text;html=1;align=center;verticalAlign=middle;whiteSpace=wrap;rounded=0;fontSize=8;" vertex="1" parent="1">
          <mxGeometry x="336" y="180" width="98" height="30" as="geometry" />
        </mxCell>
        <mxCell id="m2WXIrSw0jwoF81mmCLI-26" value="" style="endArrow=classic;html=1;rounded=0;entryX=0.5;entryY=1;entryDx=0;entryDy=0;" edge="1" parent="1" source="m2WXIrSw0jwoF81mmCLI-25" target="m2WXIrSw0jwoF81mmCLI-14">
          <mxGeometry width="50" height="50" relative="1" as="geometry">
            <mxPoint x="340" y="270" as="sourcePoint" />
            <mxPoint x="390" y="220" as="targetPoint" />
          </mxGeometry>
        </mxCell>
        <mxCell id="m2WXIrSw0jwoF81mmCLI-28" value="Browser" style="swimlane;whiteSpace=wrap;html=1;" vertex="1" parent="1">
          <mxGeometry x="60" y="140" width="140" height="110" as="geometry" />
        </mxCell>
        <mxCell id="m2WXIrSw0jwoF81mmCLI-29" value="Refreshes with new note &lt;br&gt;added at the bottom of the page" style="text;html=1;align=center;verticalAlign=middle;resizable=0;points=[];autosize=1;strokeColor=none;fillColor=none;fontSize=8;" vertex="1" parent="m2WXIrSw0jwoF81mmCLI-28">
          <mxGeometry y="70" width="140" height="30" as="geometry" />
        </mxCell>
      </root>
    </mxGraphModel>
  </diagram>
</mxfile>
